<svg id="Logo" xmlns="http://www.w3.org/2000/svg" viewBox="0 0 1440.06 694.78"><defs><style>.cls-1{fill:#003071;}.cls-2{fill:#fff;}</style></defs><title>CWRU_Four-line logo(sunburst left)_RGB Blue</title><rect class="cls-1" y="3.55" width="348.08" height="348.08"/><path class="cls-2" d="M340,368.68l0-.82,90.23-25.64-.19-1L323.72,353.79l-.31-.75,92.2-72-.54-.82L313.84,337.56l-.58-.58,61.66-108-.82-.55-75.9,98-.76-.32,16.4-127.38-1-.2L279.32,322.35h-.82L244.94,198.52l-1,.2,16.4,127.38-.75.32-75.91-98-.81.55,61.66,108-.58.58L142.75,280.24l-.54.82,92.2,72-.31.75L127.83,341.26l-.19,1,90.25,25.54,0,.82c-37,9.21-67.27,25.1-80.35,30.79l.26,1.05a567.78,567.78,0,0,1,282,0l.26-1.05C407,393.7,376.93,377.89,340,368.68Z" transform="translate(-104.87 -141.47)"/><path class="cls-1" d="M594.71,284q18.13,9.13,40.37,9.13A72.89,72.89,0,0,0,662.66,288a75.06,75.06,0,0,0,23.81-15.84l-4-15.73a80.79,80.79,0,0,1-19.71,9.86,66.46,66.46,0,0,1-21.19,3.36A57.72,57.72,0,0,1,613.79,263a47.38,47.38,0,0,1-19.19-19q-6.92-12.37-6.92-29.37,0-15.73,6.29-27.89a46.34,46.34,0,0,1,17.83-19A51,51,0,0,1,638.23,161a45.29,45.29,0,0,1,21.6,5.35,53.15,53.15,0,0,1,17.62,15.41h1.26V152.17a82.25,82.25,0,0,0-20.66-8,96,96,0,0,0-22.76-2.73,86.18,86.18,0,0,0-39.43,9.23,73,73,0,0,0-29.26,26.64q-11,17.41-11,40.48,0,22.86,10.49,39.95A69.51,69.51,0,0,0,594.71,284Z" transform="translate(-104.87 -141.47)"/><path class="cls-1" d="M725.9,289.13a18.69,18.69,0,0,1-3-8.39,32.21,32.21,0,0,1,.63-10.17,91.19,91.19,0,0,1,3.88-12.9l2.46-6.5h56.11l2.68,6.92a98.88,98.88,0,0,1,4,12.58,37.4,37.4,0,0,1,1,10.07,18.76,18.76,0,0,1-2.31,8.39v1.05H836v-1.05a47.14,47.14,0,0,1-5.87-7.65,79.91,79.91,0,0,1-5-9.86q-2.52-5.78-5-12.06a3.79,3.79,0,0,1-.32-.95,3.84,3.84,0,0,0-.31-.94L773.93,144.41H749.18l-44.67,114.1c-.28.7-.56,1.43-.84,2.2s-.56,1.51-.84,2.2q-4.2,10.71-6.92,16.26a33.52,33.52,0,0,1-7.55,10v1.05H725.9ZM757,179.44h1.25l20.36,52.64H737Z" transform="translate(-104.87 -141.47)"/><path class="cls-1" d="M886.56,293.12a61.32,61.32,0,0,0,26.75-5.77,47.35,47.35,0,0,0,19.08-16.05,40.65,40.65,0,0,0,7-23.49q0-13-6.92-22.44t-20.14-15.52l-20.13-9.23q-9-4.2-13.11-8.91a16.3,16.3,0,0,1-4.09-11A17.47,17.47,0,0,1,878.28,170a20.25,20.25,0,0,1,8.91-6.71A33.06,33.06,0,0,1,899.78,161a39.94,39.94,0,0,1,34.4,19.3h1.25V151.12a56.78,56.78,0,0,0-16.36-7,76.73,76.73,0,0,0-20.13-2.62,60.77,60.77,0,0,0-27,5.87,46.18,46.18,0,0,0-18.88,16.26,41.28,41.28,0,0,0-6.82,23.18,37.19,37.19,0,0,0,7.13,22.54q7.13,9.77,21.19,16.26l18.66,8.6q8.61,4,12.9,8.49a15.89,15.89,0,0,1,4.3,11.43,16.41,16.41,0,0,1-3.56,10.81,21.29,21.29,0,0,1-9.33,6.39,35.64,35.64,0,0,1-12.28,2.1,44.73,44.73,0,0,1-22-6.08q-10.9-6.09-18.88-18.25h-1.25v29.78a70.43,70.43,0,0,0,20.34,10.6A73.29,73.29,0,0,0,886.56,293.12Z" transform="translate(-104.87 -141.47)"/><path class="cls-1" d="M1070.09,258.09h-1.26a24.55,24.55,0,0,1-7.45,8.08,27,27,0,0,1-10.17,3.88,84.19,84.19,0,0,1-14.47,1H996.47V226.42h28.31a90.29,90.29,0,0,1,13.43.84,34.59,34.59,0,0,1,8.91,2.41,20.93,20.93,0,0,1,6.19,4.3h1.26v-34.4h-1.26A26.8,26.8,0,0,1,1047,204a29.8,29.8,0,0,1-8.71,2.52,89.79,89.79,0,0,1-13.53.84H996.47V163.5h36.91a91.87,91.87,0,0,1,15.21,1,34.45,34.45,0,0,1,10,3.15,23.66,23.66,0,0,1,7.13,5.87h1.26V144.41H960.6v1.05a32.93,32.93,0,0,1,3.67,7.76,49.86,49.86,0,0,1,2,9.54,110.41,110.41,0,0,1,.63,12.69v83.48a112.61,112.61,0,0,1-.63,12.9,49.7,49.7,0,0,1-2,9.54,32.93,32.93,0,0,1-3.67,7.76v1.05h109.49Z" transform="translate(-104.87 -141.47)"/><path class="cls-1" d="M593.34,493.07h27.9l28.94-106.76h1.26l27.9,106.76h27.48l31-112.42c1.25-4.47,2.51-8.71,3.77-12.69a81.34,81.34,0,0,1,4.09-10.59,71.94,71.94,0,0,1,5.14-9V347.3H716.25v1.05a27.22,27.22,0,0,1,2.94,8.91,36,36,0,0,1-.11,9.86c-.49,3.56-1.36,7.94-2.62,13.11l-18.88,73.41h-1.25L668.22,347.3H632.77l4.62,12.79-24.75,94.18h-1.26L592.51,381.7a92.69,92.69,0,0,1-2.73-13.22,38.6,38.6,0,0,1,.1-10.27,33.43,33.43,0,0,1,3.25-9.86V347.3H548.88v1.05a73.21,73.21,0,0,1,5.14,9,77.6,77.6,0,0,1,4.09,10.9q1.88,6.3,4,13.64Z" transform="translate(-104.87 -141.47)"/><path class="cls-1" d="M772,461.82a112.61,112.61,0,0,1-.63,12.9,49.7,49.7,0,0,1-2,9.54,32.74,32.74,0,0,1-3.67,7.76v1.05H875.24V461H874a24.66,24.66,0,0,1-7.45,8.08,27,27,0,0,1-10.17,3.88,84.19,84.19,0,0,1-14.47,1H801.61V429.31h28.32a90.15,90.15,0,0,1,13.42.84,34.56,34.56,0,0,1,8.92,2.41,20.76,20.76,0,0,1,6.18,4.3h1.26v-34.4h-1.26a26.93,26.93,0,0,1-6.29,4.41,29.74,29.74,0,0,1-8.7,2.51,89.88,89.88,0,0,1-13.53.84H801.61V366.39h36.92a91.87,91.87,0,0,1,15.21,1,34.45,34.45,0,0,1,10,3.15,23.66,23.66,0,0,1,7.13,5.87h1.26V347.3H765.75v1.05a32.93,32.93,0,0,1,3.67,7.76,49.86,49.86,0,0,1,2,9.54,110.41,110.41,0,0,1,.63,12.69v83.48Z" transform="translate(-104.87 -141.47)"/><path class="cls-1" d="M980.84,474.19a40.65,40.65,0,0,0,7-23.49q0-13-6.93-22.44t-20.13-15.52l-20.14-9.23q-9-4.18-13.11-8.91a16.34,16.34,0,0,1-4.09-11,17.47,17.47,0,0,1,3.25-10.69,20.28,20.28,0,0,1,8.92-6.71,33,33,0,0,1,12.58-2.31,40,40,0,0,1,19.61,5,39.51,39.51,0,0,1,14.79,14.27h1.26V354a56.9,56.9,0,0,0-16.36-7,76.39,76.39,0,0,0-20.14-2.63,60.67,60.67,0,0,0-27,5.88,46.12,46.12,0,0,0-18.87,16.25,41.28,41.28,0,0,0-6.82,23.18,37.13,37.13,0,0,0,7.13,22.54Q909,422,923.06,428.47l18.66,8.6q8.6,4,12.9,8.49a15.9,15.9,0,0,1,4.3,11.44,16.35,16.35,0,0,1-3.57,10.8,21.23,21.23,0,0,1-9.33,6.39,35.58,35.58,0,0,1-12.27,2.1,44.73,44.73,0,0,1-22-6.08q-10.92-6.09-18.88-18.25h-1.26v29.78a70.35,70.35,0,0,0,20.35,10.6A73.29,73.29,0,0,0,935,496a61.27,61.27,0,0,0,26.74-5.77A47.23,47.23,0,0,0,980.84,474.19Z" transform="translate(-104.87 -141.47)"/><path class="cls-1" d="M1087.91,366.18a81.06,81.06,0,0,1,15.41,1.25,35,35,0,0,1,10.6,3.67,19.9,19.9,0,0,1,6.71,6.19h1.26v-30h-124v30h1.26a19.81,19.81,0,0,1,6.71-6.19,34.93,34.93,0,0,1,10.59-3.67,81.24,81.24,0,0,1,15.42-1.25h13.21v95a119.67,119.67,0,0,1-.63,13.42,40.7,40.7,0,0,1-2.2,9.65,27,27,0,0,1-4.51,7.76v1.05H1082V492a27,27,0,0,1-4.51-7.76,40.68,40.68,0,0,1-2.21-9.65,119.67,119.67,0,0,1-.63-13.42v-95Z" transform="translate(-104.87 -141.47)"/><path class="cls-1" d="M1247.31,461h-1.26a24.53,24.53,0,0,1-7.44,8.08,27,27,0,0,1-10.18,3.88,84.11,84.11,0,0,1-14.47,1h-40.27V429.31H1202a90.24,90.24,0,0,1,13.42.84,34.67,34.67,0,0,1,8.92,2.41,21,21,0,0,1,6.18,4.3h1.26v-34.4h-1.26a27.14,27.14,0,0,1-6.29,4.41,29.84,29.84,0,0,1-8.7,2.51,89.88,89.88,0,0,1-13.53.84h-28.32V366.39h36.92a91.65,91.65,0,0,1,15.2,1,34.25,34.25,0,0,1,10,3.15,23.69,23.69,0,0,1,7.14,5.87h1.26V347.3H1137.83v1.05a33.73,33.73,0,0,1,3.67,7.76,50.64,50.64,0,0,1,2,9.54,110.41,110.41,0,0,1,.63,12.69v83.48a112.61,112.61,0,0,1-.63,12.9,50.47,50.47,0,0,1-2,9.54,33.54,33.54,0,0,1-3.67,7.76v1.05h109.48Z" transform="translate(-104.87 -141.47)"/><path class="cls-1" d="M1309.81,492a32.48,32.48,0,0,1-3.88-8,45.21,45.21,0,0,1-1.89-9.65q-.52-5.44-.52-13.42V427.63h10.91l49.29,65.44h36.49v-.42l-54.68-69.36c1.76-.53,3.52-1.08,5.18-1.74q12.58-5,19.51-14.05a35.37,35.37,0,0,0,.21-41.74q-6.72-8.82-19-13.64t-28.63-4.82h-55v1.05a25.63,25.63,0,0,1,4.09,7.86,43.33,43.33,0,0,1,1.79,9.44c.27,3.43.42,7.66.42,12.69V461q0,8-.53,13.42a45.86,45.86,0,0,1-1.88,9.65,32.51,32.51,0,0,1-3.89,8v1.05h42Zm-6.29-126.26H1319q12.8,0,20.14,5.34t7.34,15.63a21.06,21.06,0,0,1-3.36,12,21.55,21.55,0,0,1-9.65,7.76,37.21,37.21,0,0,1-14.89,2.72h-15.1Z" transform="translate(-104.87 -141.47)"/><path class="cls-1" d="M1510.33,347.3v1.05a25.42,25.42,0,0,1,3.87,7.76,49.47,49.47,0,0,1,1.89,10.07q.53,5.65.53,13.21v72.78h-1.26l-60.2-104.87h-43.41v.63l5.45,8.18V460.56q0,7.54-.53,13.32a51.82,51.82,0,0,1-1.89,10.28,25.1,25.1,0,0,1-3.87,7.86v1.05h34.6V492a24.9,24.9,0,0,1-3.88-7.86,51,51,0,0,1-1.88-10.18q-.52-5.66-.53-13.42v-81.8h1.26L1507,493.07h31.67V379.39q0-7.75.52-13.32a49.4,49.4,0,0,1,1.89-10,25.22,25.22,0,0,1,3.88-7.76V347.3Z" transform="translate(-104.87 -141.47)"/><path class="cls-1" d="M643.26,624.36q12.59-5,19.51-14.05a35.37,35.37,0,0,0,.21-41.74q-6.72-8.82-19-13.64t-28.63-4.82h-55v1A25.63,25.63,0,0,1,564.5,559a43.33,43.33,0,0,1,1.79,9.44c.27,3.43.42,7.66.42,12.69v82.64q0,8-.53,13.42a45.86,45.86,0,0,1-1.88,9.65,32.51,32.51,0,0,1-3.89,8v1h42v-1a32.48,32.48,0,0,1-3.88-8,45.21,45.21,0,0,1-1.89-9.65q-.52-5.44-.52-13.42V630.44H607l49.29,65.44h36.49v-.42L638.08,626.1C639.84,625.57,641.6,625,643.26,624.36ZM596.07,612V568.57h15.52q12.79,0,20.14,5.34t7.34,15.63a21.14,21.14,0,0,1-3.36,12,21.55,21.55,0,0,1-9.65,7.76A37.21,37.21,0,0,1,611.17,612Z" transform="translate(-104.87 -141.47)"/><path class="cls-1" d="M804.24,671.87a27,27,0,0,1-10.18,3.88,84.11,84.11,0,0,1-14.47,1H739.32V632.12h28.32a90.24,90.24,0,0,1,13.42.84,34.67,34.67,0,0,1,8.92,2.41,21,21,0,0,1,6.18,4.3h1.26v-34.4h-1.26a27.14,27.14,0,0,1-6.29,4.41,29.84,29.84,0,0,1-8.7,2.51,89.88,89.88,0,0,1-13.53.84H739.32V569.2h36.92a91.65,91.65,0,0,1,15.2,1,34.25,34.25,0,0,1,10,3.15,23.69,23.69,0,0,1,7.14,5.87h1.26V550.11H703.46v1a33.73,33.73,0,0,1,3.67,7.76,50.64,50.64,0,0,1,2,9.54,110.41,110.41,0,0,1,.63,12.69v83.48a112.61,112.61,0,0,1-.63,12.9,50.47,50.47,0,0,1-2,9.54,33.54,33.54,0,0,1-3.67,7.76v1H812.94V663.79h-1.26A24.53,24.53,0,0,1,804.24,671.87Z" transform="translate(-104.87 -141.47)"/><path class="cls-1" d="M898.51,615.55l-20.13-9.23q-9-4.2-13.11-8.91a16.3,16.3,0,0,1-4.09-11,17.47,17.47,0,0,1,3.25-10.69,20.28,20.28,0,0,1,8.92-6.71,33,33,0,0,1,12.58-2.31,39.94,39.94,0,0,1,34.4,19.3h1.26V556.82a57,57,0,0,0-16.37-7,76.73,76.73,0,0,0-20.13-2.62,60.67,60.67,0,0,0-27,5.88,46.15,46.15,0,0,0-18.88,16.25,41.36,41.36,0,0,0-6.82,23.18A37.13,37.13,0,0,0,839.58,615q7.13,9.76,21.18,16.26l18.67,8.6q8.6,4,12.9,8.49a15.94,15.94,0,0,1,4.3,11.43,16.36,16.36,0,0,1-3.57,10.81,21.29,21.29,0,0,1-9.33,6.39,35.62,35.62,0,0,1-12.27,2.1,44.76,44.76,0,0,1-22-6.08q-10.9-6.09-18.87-18.25H829.3v29.78a70.43,70.43,0,0,0,20.34,10.6,73.35,73.35,0,0,0,23.08,3.67,61.27,61.27,0,0,0,26.74-5.77,47.22,47.22,0,0,0,19.08-16,40.58,40.58,0,0,0,7-23.49q0-13-6.92-22.44T898.51,615.55Z" transform="translate(-104.87 -141.47)"/><path class="cls-1" d="M1047.53,671.87a27,27,0,0,1-10.17,3.88,84.19,84.19,0,0,1-14.47,1H982.62V632.12h28.31a90.39,90.39,0,0,1,13.43.84,34.59,34.59,0,0,1,8.91,2.41,20.93,20.93,0,0,1,6.19,4.3h1.26v-34.4h-1.26a27.14,27.14,0,0,1-6.29,4.41,29.82,29.82,0,0,1-8.71,2.51,89.88,89.88,0,0,1-13.53.84H982.62V569.2h36.91a91.87,91.87,0,0,1,15.21,1,34.45,34.45,0,0,1,10,3.15,23.66,23.66,0,0,1,7.13,5.87h1.26V550.11H946.75v1a32.93,32.93,0,0,1,3.67,7.76,49.86,49.86,0,0,1,2,9.54,110.41,110.41,0,0,1,.63,12.69v83.48a112.61,112.61,0,0,1-.63,12.9,49.7,49.7,0,0,1-2,9.54,32.74,32.74,0,0,1-3.67,7.76v1h109.49V663.79H1055A24.55,24.55,0,0,1,1047.53,671.87Z" transform="translate(-104.87 -141.47)"/><path class="cls-1" d="M1159.64,624.36q12.58-5,19.5-14.05a35.32,35.32,0,0,0,.21-41.74q-6.7-8.82-19-13.64t-28.63-4.82h-55v1a25.63,25.63,0,0,1,4.09,7.86,42.75,42.75,0,0,1,1.78,9.44q.42,5.14.42,12.69v82.64q0,8-.52,13.42a45.21,45.21,0,0,1-1.89,9.65,32.12,32.12,0,0,1-3.88,8v1h42v-1a32.12,32.12,0,0,1-3.88-8,45.21,45.21,0,0,1-1.89-9.65q-.53-5.44-.53-13.42V630.44h10.91l49.29,65.44h36.5v-.42l-54.69-69.36C1156.22,625.57,1158,625,1159.64,624.36ZM1112.44,612V568.57H1128q12.78,0,20.13,5.34t7.34,15.63a21.14,21.14,0,0,1-3.35,12,21.6,21.6,0,0,1-9.65,7.76,37.24,37.24,0,0,1-14.89,2.72Z" transform="translate(-104.87 -141.47)"/><path class="cls-1" d="M1308.56,551.16a16.87,16.87,0,0,1,2.1,8.28,40.12,40.12,0,0,1-1.37,9.86c-.91,3.57-2.34,8.07-4.3,13.53l-28.73,77.6h-1l-27.06-77a122.73,122.73,0,0,1-4-13.32,33.23,33.23,0,0,1-.84-10.28,19.38,19.38,0,0,1,2.93-8.7v-1h-44.67v1a54,54,0,0,1,5.55,8.6c1.61,3.07,3.22,6.54,4.83,10.38s3.18,7.86,4.72,12.06l41.53,113.68h26.64l42.36-111.79q2.73-6.93,5.35-13.11a100.28,100.28,0,0,1,5.35-10.91,60.79,60.79,0,0,1,6.29-8.91v-1h-35.65Z" transform="translate(-104.87 -141.47)"/><path class="cls-1" d="M1457.79,671.87a27,27,0,0,1-10.18,3.88,84.11,84.11,0,0,1-14.47,1h-40.27V632.12h28.32a90.24,90.24,0,0,1,13.42.84,34.67,34.67,0,0,1,8.92,2.41,21,21,0,0,1,6.18,4.3H1451v-34.4h-1.26a27.14,27.14,0,0,1-6.29,4.41,29.84,29.84,0,0,1-8.7,2.51,89.88,89.88,0,0,1-13.53.84h-28.32V569.2h36.92a91.65,91.65,0,0,1,15.2,1,34.25,34.25,0,0,1,10,3.15,23.69,23.69,0,0,1,7.14,5.87h1.26V550.11H1357v1a33.73,33.73,0,0,1,3.67,7.76,50.64,50.64,0,0,1,2,9.54,110.41,110.41,0,0,1,.63,12.69v83.48a112.61,112.61,0,0,1-.63,12.9,50.47,50.47,0,0,1-2,9.54,33.54,33.54,0,0,1-3.67,7.76v1h109.48V663.79h-1.26A24.53,24.53,0,0,1,1457.79,671.87Z" transform="translate(-104.87 -141.47)"/><path class="cls-1" d="M967,815.58l-.34.56a12.48,12.48,0,0,1-3.78,4.11,13.85,13.85,0,0,1-5.23,2,45.11,45.11,0,0,1-7.84.56H926.69V800.92h16.24a49.36,49.36,0,0,1,7.28.46,17.7,17.7,0,0,1,4.66,1.25,10.49,10.49,0,0,1,3.1,2.16l.33.33H959V783.73h-.67L958,784a14.18,14.18,0,0,1-3.23,2.26,15.73,15.73,0,0,1-4.51,1.29,49,49,0,0,1-7.33.46H926.69V766H947.8a50.2,50.2,0,0,1,8.25.56,18.1,18.1,0,0,1,5.2,1.64,12,12,0,0,1,3.62,3l.34.41h.63V753.09H904.49v.48l.18.28a17.32,17.32,0,0,1,1.91,4,26.21,26.21,0,0,1,1.06,5.08,59.94,59.94,0,0,1,.34,6.92v47.29a61.14,61.14,0,0,1-.34,7,27,27,0,0,1-1.06,5.08,17.3,17.3,0,0,1-1.91,4.05l-.18.28v2.06h63.1V815.58Z" transform="translate(-104.87 -141.47)"/><path class="cls-1" d="M1036.92,797q.74-.24,1.38-.51a26.11,26.11,0,0,0,11.32-8.17,20.78,20.78,0,0,0,.12-24.57,25.15,25.15,0,0,0-11-8,44.68,44.68,0,0,0-16.32-2.75H990.71v.54l.24.31a13.28,13.28,0,0,1,2.09,4,23.15,23.15,0,0,1,.94,5c.15,1.88.23,4.22.23,7v48.36c0,2.9-.1,5.37-.29,7.35a23.71,23.71,0,0,1-1,5.12,17.12,17.12,0,0,1-2,4.15l-.19.28v.61h25.58v-.61l-.19-.28a17.3,17.3,0,0,1-2-4.15,24.32,24.32,0,0,1-1-5.12c-.19-2-.28-4.44-.28-7.35V799.9h5.31l26.82,35.79h21.59v-.61ZM1034.41,776a10.65,10.65,0,0,1-1.67,6,10.92,10.92,0,0,1-4.87,3.9,19.68,19.68,0,0,1-7.82,1.42h-7.25V765.53h7.48c4.47,0,8,.92,10.52,2.75S1034.41,772.59,1034.41,776Z" transform="translate(-104.87 -141.47)"/><path class="cls-1" d="M588.66,753H563v.58c1.26,2.25,3.5,6.2,3.5,14.21v32c0,19.38,10.82,35.79,34.7,35.79,25.08,0,35.51-15.79,35.51-35.79l0-32c.17-10.92,3.47-14.21,3.47-14.21V753H618.54v.58s3.47,4,3.47,14.21c0,10.55,0,25.15,0,32,0,10.95-5.58,20.59-17.45,20.59-14,0-19.43-9.09-19.43-20.59,0-12.94,0-32,0-32,0-6.56,1.93-12.1,3.46-14.21Z" transform="translate(-104.87 -141.47)"/><path class="cls-1" d="M1186,753.61V753h-25.7s0,.61,0,.63c2.49,3.53,3.5,7.78,3.5,16.43v48.48c0,12.27-2.17,14.29-3.5,16.51v.58H1186v-.57c-.18-.82-3.5-2.62-3.5-15.7v-49.3C1182.45,764.38,1182.53,758.37,1186,753.61Z" transform="translate(-104.87 -141.47)"/><path class="cls-1" d="M735.13,753h-21.5v.58c3.17,3.74,3.49,11.06,3.49,16.87l.09,38.41h-.37L684.78,753H658.86v.34l3,4.62v60c0,9.7-1.11,14.25-3.5,17.1,0,0,0,.61,0,.61H679.9v-.57l0,0c-1.1-1.59-3.47-4-3.47-17.1V775.3h.38l35.46,60.35h19.39V770.47c0-6.75.36-12.94,3.5-16.87C735.14,753.59,735.13,753,735.13,753Z" transform="translate(-104.87 -141.47)"/><path class="cls-1" d="M863.58,753v.58c1.49,2.68,1.46,5.2.45,9.5a72.47,72.47,0,0,1-2.36,7.4l-14.94,41.11h-.43l-14.06-40.75a67,67,0,0,1-2.18-7.27c-1.18-5.35-.08-7.85,1.2-10V753h-27.1s0,.58,0,.58c4.12,4.89,7.63,15,8.46,17.26L836,835.65h16.34l23.84-63.79c1-2.57,2-5,3-7.26,2.13-5,4.47-8.82,6.55-11V753Z" transform="translate(-104.87 -141.47)"/><path class="cls-1" d="M784.3,753.61V753H758.6s0,.61,0,.63c2.49,3.53,3.5,7.78,3.5,16.43v48.48c0,12.27-2.17,14.29-3.5,16.51v.58h25.7v-.57c-.17-.27-3.5-3.31-3.5-15.7v-49.3C780.8,764.38,780.88,758.37,784.3,753.61Z" transform="translate(-104.87 -141.47)"/><path class="cls-1" d="M1206.51,753V772h.6l.28-.43c1.72-2.5,5.13-5.75,17.29-5.75h8v52.77c0,12.27-2.17,14.29-3.5,16.51v.58h25.7v-.56s-.08-.12-.11-.18c-.5-.94-3.39-3.26-3.39-15.53V765.79h8c13.56,0,16.16,4.16,17.17,5.58.23.32.4.6.4.6h.64V753Z" transform="translate(-104.87 -141.47)"/><path class="cls-1" d="M1349,753v.54l0,.16c1,2.74-.76,7.12-1.57,8.94s-2,4.13-3.45,6.72l-9.93,17.71h-.27L1324,768.79c-1.22-2.28-2.2-4.32-2.92-6.07s-2.2-6-1.08-9l.06-.17V753h-28.38v.54l.35.34c2.7,2.3,7,8.06,11.92,16.75l17.91,31.73v10.39h0v5.81c0,12.27-2.17,14.29-3.5,16.51v.58h25.7v-.56l-.15-.26c-.57-1-3.35-3.55-3.35-15.45v-6.63h0V802.69l18.14-31.38c1.62-2.78,3.1-5.17,4.39-7.11s2.68-3.81,4.07-5.5a40.31,40.31,0,0,1,4.71-4.82l.39-.34V753Z" transform="translate(-104.87 -141.47)"/><path class="cls-1" d="M1349,753v.54l0,.16c1,2.74-.76,7.12-1.57,8.94s-2,4.13-3.45,6.72l-9.93,17.71h-.27L1324,768.79c-1.22-2.28-2.2-4.32-2.92-6.07s-2.2-6-1.08-9l.06-.17V753h-28.38v.54l.35.34c2.7,2.3,7,8.06,11.92,16.75l17.91,31.73v10.39h0v5.81c0,12.27-2.17,14.29-3.5,16.51v.58h25.7v-.56l-.15-.26c-.57-1-3.35-3.55-3.35-15.45v-6.63h0V802.69l18.14-31.38c1.62-2.78,3.1-5.17,4.39-7.11s2.68-3.81,4.07-5.5a40.31,40.31,0,0,1,4.71-4.82l.39-.34V753Z" transform="translate(-104.87 -141.47)"/><path class="cls-1" d="M1082,777.44c.07-17.67,16-25.43,29.61-25.43,9.07,0,17.53,2.47,22.18,5.88v18h-.63c-1.36-2.5-8.27-10.68-19.8-10.68-11.9,0-13.86,6.28-13.86,8.61,0,3.76,1.21,6.85,10.46,11.05,10.85,4.94,26.79,8.65,26.79,25.29,0,18.32-18,26.15-29,26.15-13.66,0-19.14-3.41-26.81-8.5V809.51h.66s10.73,13.49,23.9,13.49c7.93,0,12.84-3.83,12.84-9.35s-4.71-6.74-12.5-10.16c-2.7-1.18-7-3.2-10-4.7C1087.79,794.64,1082,787.88,1082,777.44Z" transform="translate(-104.87 -141.47)"/></svg>